<svg xmlns="http://www.w3.org/2000/svg" xmlns:xlink="http://www.w3.org/1999/xlink" viewBox="0,0,256,256" width="48px" height="48px" fill-rule="nonzero"><g fill="none" fill-rule="nonzero" stroke="none" stroke-width="1" stroke-linecap="butt" stroke-linejoin="miter" stroke-miterlimit="10" stroke-dasharray="" stroke-dashoffset="0" font-family="none" font-weight="none" font-size="none" text-anchor="none" style="mix-blend-mode: normal"><g transform="scale(5.33333,5.33333)"><path d="M43.002,11.66c0.132,-1.734 0.181,-3.482 -0.806,-4.913c-0.717,-1.04 -1.915,-1.667 -3.144,-1.948c-1.23,-0.281 -2.506,-0.254 -3.767,-0.225c-5.013,0.115 -10.606,0.145 -15.619,0.271c-2.367,0.059 -5.234,-0.983 -7.627,-0.918c-1.184,0.032 -2.407,0.073 -3.48,0.577c-1.653,0.777 -2.648,2.513 -3.21,4.253c-1.466,4.539 -0.66,9.449 -0.256,14.202c0.386,4.543 0.388,10.153 0.007,14.696c-0.069,0.82 0.169,1.655 0.709,2.274c1.216,1.395 2.558,2.812 4.361,3.217c1.803,0.405 3.68,0.235 5.521,0.063c1.439,-0.135 2.864,-0.126 4.303,-0.26c5.335,-0.405 10.671,-0.465 16.021,-0.466c1.856,-0.001 3.885,-0.036 5.307,-1.231c1.469,-1.235 1.832,-3.332 1.939,-5.25c0.222,-3.96 -0.23,-7.922 -0.436,-11.882c-0.259,-4.997 -0.342,-7.485 0.177,-12.46z" fill="#fffdfc"></path><path d="M12.669,43.897c-0.869,0 -1.741,-0.068 -2.607,-0.263c-1.934,-0.436 -3.347,-1.907 -4.629,-3.378c-0.61,-0.698 -0.913,-1.662 -0.831,-2.644c0.377,-4.505 0.375,-10.108 -0.007,-14.612c-0.06,-0.7 -0.128,-1.404 -0.196,-2.11c-0.396,-4.091 -0.806,-8.32 0.475,-12.287c0.506,-1.571 1.521,-3.635 3.472,-4.551c1.185,-0.556 2.51,-0.592 3.679,-0.624c1.216,-0.033 2.725,0.072 3.975,0.322c1.25,0.25 2.519,0.624 3.653,0.594c2.633,-0.065 5.426,-0.105 8.211,-0.145c2.518,-0.035 5.029,-0.071 7.409,-0.126c1.275,-0.029 2.59,-0.06 3.89,0.237c1.501,0.343 2.724,1.107 3.445,2.15c1.074,1.559 1.03,3.44 0.893,5.235l-0.001,0.014c-0.522,5.014 -0.424,7.556 -0.172,12.381c0.055,1.056 0.127,2.111 0.2,3.166c0.197,2.87 0.4,5.838 0.235,8.771c-0.104,1.868 -0.44,4.194 -2.117,5.604c-1.604,1.349 -3.835,1.349 -5.629,1.349c-5.937,0.002 -10.926,0.082 -15.983,0.466c-0.719,0.067 -1.443,0.099 -2.167,0.131c-0.708,0.031 -1.416,0.063 -2.126,0.129c-1.012,0.095 -2.039,0.191 -3.072,0.191zM36.432,5.057c-0.38,0 -0.76,0.009 -1.135,0.018c-2.383,0.055 -4.897,0.09 -7.418,0.126c-2.782,0.039 -5.571,0.079 -8.2,0.145c-1.138,0.028 -2.429,-0.346 -3.667,-0.594c-1.262,-0.252 -2.748,-0.356 -3.959,-0.322c-1.071,0.029 -2.286,0.062 -3.282,0.529c-1.626,0.762 -2.5,2.569 -2.945,3.951c-1.218,3.77 -0.818,7.896 -0.431,11.885c0.068,0.709 0.137,1.417 0.197,2.122c0.387,4.559 0.39,10.219 0.007,14.78c-0.059,0.713 0.155,1.407 0.588,1.903c1.173,1.346 2.455,2.69 4.094,3.059c1.741,0.392 3.583,0.22 5.365,0.053c0.728,-0.068 1.452,-0.1 2.176,-0.132c0.708,-0.031 1.416,-0.063 2.127,-0.129c5.096,-0.386 10.107,-0.467 16.067,-0.469c1.631,0 3.661,0 4.985,-1.114c1.384,-1.162 1.668,-3.227 1.762,-4.895c0.161,-2.871 -0.041,-5.807 -0.235,-8.646c-0.073,-1.061 -0.146,-2.121 -0.201,-3.182c-0.254,-4.876 -0.353,-7.446 0.176,-12.53c0.128,-1.681 0.168,-3.296 -0.719,-4.585c-0.578,-0.836 -1.588,-1.456 -2.844,-1.743c-0.813,-0.186 -1.662,-0.23 -2.508,-0.23z" fill="#ffffff"></path><path d="M29.22,28.813c-0.963,0.306 -1.914,0.509 -2.924,0.492c-3.046,-0.054 -1.704,1.538 -1.032,2.344c-0.819,0.426 -1.69,0.728 -2.621,0.802c-1.925,0.152 -4.883,-0.981 -6.143,-2.451c-1.5,-1.75 -1.234,-0.044 -0.25,1.5c1.514,2.376 3.651,3.363 6.5,3.25c1.845,-0.073 3.169,-0.189 4.686,-1.127c0.128,0.615 0.713,1.377 1.314,1.377c0.839,0 1.412,-0.935 1.501,-1.699c0.086,-0.741 0.232,-1.472 0.406,-2.198c0.91,-0.965 -0.135,-2.705 -1.437,-2.29z" fill="#000000"></path><path d="M9.895,28c-0.066,0 -0.135,-0.006 -0.203,-0.021c-0.541,-0.111 -0.95,-0.657 -0.777,-1.181c0.246,-0.748 0.338,-0.795 0.491,-1.343c0.152,-0.544 0.297,-1.059 0.451,-1.81c0.055,-0.265 0.101,-0.427 0.143,-0.645c0.056,-0.291 0.06,-0.887 0.085,-1.094c0.066,-0.548 0.572,-0.938 1.112,-0.873c0.549,0.066 0.939,0.564 0.874,1.112c-0.034,0.281 -0.052,1.001 -0.123,1.307c-0.037,0.162 -0.081,0.351 -0.132,0.597c-0.169,0.82 -0.329,1.393 -0.484,1.946c-0.142,0.507 -0.332,1.005 -0.458,1.207c-0.256,0.409 -0.514,0.798 -0.979,0.798z" fill="#000000"></path><path d="M11.905,20c-0.438,0 -0.841,-0.292 -0.963,-0.735c-0.075,-0.273 -0.062,-0.532 0.038,-0.771c0.13,-0.307 0.456,-0.572 0.783,-0.636c0.343,-0.068 0.697,0.04 0.942,0.286c0.158,0.158 0.259,0.365 0.286,0.588c0.042,0.354 -0.089,0.691 -0.328,0.921c-0.126,0.146 -0.294,0.257 -0.492,0.312c-0.088,0.023 -0.178,0.035 -0.266,0.035zM12.87,18.734c0,0 0,0.001 0,0c0,0.001 0,0 0,0z" fill="#000000"></path><path d="M20.651,16.764c-0.209,0.021 -0.468,-0.01 -0.742,-0.042c-0.593,-0.067 -1.484,-0.271 -2.207,0.095c-0.66,0.334 -0.956,0.978 -1.281,1.529c-0.3,0.507 -0.539,1.093 -0.8,1.689c-0.02,0.045 -0.031,0.091 -0.05,0.136l-1.491,-0.118c-0.562,-0.038 -1.032,0.368 -1.076,0.918c-0.044,0.551 0.367,1.032 0.918,1.076l1.006,0.08c-0.024,0.087 -0.512,1.046 -0.759,2.201c-0.129,0.601 -0.498,2.409 -0.498,2.409c-0.146,0.533 0.169,1.083 0.702,1.228c0.087,0.023 0.176,0.035 0.263,0.035c0.439,0 0.843,-0.293 0.964,-0.738c0,0 0.346,-1.944 0.474,-2.589c0.149,-0.747 0.827,-2.178 0.886,-2.385l0.729,0.058c0.027,0.002 0.054,0.003 0.08,0.003c0.517,0 0.954,-0.397 0.996,-0.921c0.044,-0.551 -0.367,-1.032 -0.918,-1.076l-0.148,-0.012c0.165,-0.319 0.265,-0.676 0.443,-0.976c0.138,-0.234 0.269,-0.665 0.463,-0.763c0.188,-0.094 0.697,0.064 1.075,0.108c0.349,0.04 0.742,0.087 1.16,0.046c0.55,-0.052 0.953,-0.54 0.9,-1.09c-0.051,-0.55 -0.535,-0.954 -1.089,-0.901z" fill="#000000"></path><path d="M21.978,27c-0.229,0 -0.445,-0.033 -0.641,-0.071c-0.378,-0.075 -0.753,-0.178 -1.115,-0.307c-0.194,-0.068 -0.713,-0.252 -1.006,-0.772c-0.163,-0.288 -0.198,-0.58 -0.21,-0.8c-0.073,-1.275 0.482,-2.641 1.524,-3.745c0.313,-0.332 0.649,-0.617 0.998,-0.846c0.361,-0.236 0.732,-0.413 1.104,-0.523c0.207,-0.062 0.416,-0.104 0.629,-0.126c0.206,-0.021 0.513,-0.053 0.851,0.075c0.236,0.09 0.393,0.227 0.485,0.309c0.238,0.185 0.402,0.354 0.541,0.55c0.273,0.391 0.44,0.876 0.472,1.368c0.04,0.65 -0.125,1.333 -0.506,2.092c-0.379,0.757 -0.872,1.438 -1.465,2.023c-0.269,0.265 -0.606,0.554 -1.073,0.692c-0.202,0.059 -0.399,0.081 -0.588,0.081zM21.258,21.991h0.01z" fill="#000000"></path><path d="M28.134,27c-0.146,0 -0.29,-0.011 -0.432,-0.034c-0.376,-0.062 -0.698,-0.2 -0.957,-0.412c-0.368,-0.303 -0.602,-0.738 -0.696,-1.296c-0.125,-0.737 -0.011,-1.527 0.34,-2.348c0.255,-0.592 0.587,-1.106 0.908,-1.604l0.085,-0.132c0.229,-0.353 0.501,-0.775 0.945,-1.089c0.203,-0.144 0.426,-0.248 0.653,-0.31c0.17,-0.19 0.411,-0.315 0.685,-0.332c0.792,-0.052 1.574,0.215 2.171,0.722c0.421,0.356 0.691,0.792 0.783,1.263c0.095,0.477 -0.012,0.906 -0.082,1.19c-0.156,0.633 -0.342,1.305 -0.726,1.929c-0.291,0.475 -0.658,0.853 -0.945,1.128c-0.313,0.302 -0.743,0.684 -1.28,0.958c-0.476,0.242 -0.972,0.367 -1.452,0.367z" fill="#000000"></path><path d="M37.038,28c-0.553,0 -1,-0.448 -1,-1c0,-0.199 0.005,-0.397 0.016,-0.594c-0.435,0.205 -1.351,0.333 -1.797,0.257c-0.35,-0.057 -0.636,-0.205 -0.85,-0.44c-0.299,-0.328 -0.347,-0.72 -0.364,-0.867c-0.117,-0.945 0.012,-1.914 0.372,-2.798c0.374,-0.919 0.958,-1.577 1.688,-1.902c0.502,-0.222 1.5,-0.31 1.994,-0.187c0.148,-0.638 0.647,-2.485 0.835,-3.12c0.153,-0.515 0.693,-0.816 1.205,-0.685c0.521,0.132 0.844,0.651 0.732,1.177c-0.17,0.8 -0.71,2.813 -0.944,3.609c-0.123,0.557 -0.237,1.114 -0.351,1.664c-0.264,1.282 -0.536,2.608 -0.536,3.885c0,0.553 -0.448,1.001 -1,1.001z" fill="#000000"></path></g></g></svg>